<?xml version="1.0" encoding="UTF-8"?>
<svg version="1.1" xmlns="http://www.w3.org/2000/svg" width="333" height="150">
<path d="M0 0 C4.38418745 3.29000145 8.39103423 6.8894628 12.30078125 10.7265625 C12.94015625 11.34144531 13.57953125 11.95632812 14.23828125 12.58984375 C25.65384107 24.48954562 29.82260633 40.50782485 29.72290039 56.58105469 C29.17105813 74.76832824 21.10910766 89.38334291 8.30078125 101.7265625 C2.55070293 106.92448098 -3.56279623 110.71847743 -10.69921875 113.7265625 C-12.06046875 114.31824219 -12.06046875 114.31824219 -13.44921875 114.921875 C-30.20147992 121.16034726 -48.99535284 118.73951072 -64.94921875 111.4765625 C-81.31557831 102.66390735 -91.61531425 88.62368302 -97.88671875 71.48046875 C-98.83797271 68.25626662 -99.24273788 65.05235168 -99.69921875 61.7265625 C-100.02921875 61.3965625 -100.35921875 61.0665625 -100.69921875 60.7265625 C-100.79814815 58.56175453 -100.82892975 56.39362465 -100.82421875 54.2265625 C-100.82679687 53.040625 -100.829375 51.8546875 -100.83203125 50.6328125 C-100.69921875 47.7265625 -100.69921875 47.7265625 -99.69921875 46.7265625 C-99.42289607 45.29388946 -99.17902204 43.85492915 -98.94921875 42.4140625 C-95.53887893 24.93918253 -85.09382365 9.88531554 -70.44921875 -0.0859375 C-49.31527019 -12.82049625 -20.89897367 -13.69848694 0 0 Z " fill="#B4D701" transform="translate(115.69921875,21.2734375)"/>
<path d="M0 0 C1.20849609 0.01353516 2.41699219 0.02707031 3.66210938 0.04101562 C6.62937082 0.07620054 9.59569937 0.12543304 12.5625 0.1875 C11.90008211 3.73829859 10.98768229 6.86207466 9.5625 10.1875 C7.84353516 10.24357422 7.84353516 10.24357422 6.08984375 10.30078125 C4.55986554 10.36648584 3.02991903 10.43293159 1.5 10.5 C0.74783203 10.52255859 -0.00433594 10.54511719 -0.77929688 10.56835938 C-5.85068037 10.80985383 -11.63712474 11.38712474 -15.4375 15.1875 C-15.61651168 18.17102798 -15.64043223 19.52727102 -14.4375 22.1875 C-11.3748108 24.93002642 -7.90743008 26.99802299 -4.4375 29.1875 C1.3495102 33.20078261 5.88300777 36.54701926 8.5625 43.1875 C9.36452986 49.50348514 8.21855698 53.95836213 4.5625 59.1875 C-0.37130567 64.86726568 -6.98988898 68.6800374 -14.53417969 69.3828125 C-22.49997334 69.78836839 -29.82458077 69.70833418 -37.4375 67.1875 C-36.4475 63.8875 -35.4575 60.5875 -34.4375 57.1875 C-33.07496094 57.22230469 -31.71242188 57.25710937 -30.30859375 57.29296875 C-28.49740823 57.32112189 -26.68620929 57.34842041 -24.875 57.375 C-23.97974609 57.40013672 -23.08449219 57.42527344 -22.16210938 57.45117188 C-16.46074057 57.51382428 -12.45615588 56.9696542 -7.4375 54.1875 C-5.92549938 51.16349876 -5.8557951 49.54846166 -6.4375 46.1875 C-8.79710538 43.75074131 -11.5986111 42.02228028 -14.4375 40.1875 C-27.15458421 31.64617478 -27.15458421 31.64617478 -30.4375 24.1875 C-31.32316449 19.22777886 -30.83270827 15.22012241 -28.25 10.875 C-20.84724572 0.42405278 -11.93909869 -0.25402338 0 0 Z " fill="#FDFDF8" transform="translate(71.4375,42.8125)"/>
<path d="M0 0 C4.62 0 9.24 0 14 0 C18.14015931 10.58312912 22.23784348 21.1790136 26.19238281 31.83300781 C27.0982318 34.26357482 28.01406352 36.69028684 28.9296875 39.1171875 C29.57836166 40.8488697 30.22680283 42.5806392 30.875 44.3125 C31.18566406 45.13161865 31.49632812 45.9507373 31.81640625 46.79467773 C32.24373047 47.94238647 32.24373047 47.94238647 32.6796875 49.11328125 C32.93476074 49.79173096 33.18983398 50.47018066 33.45263672 51.16918945 C34 53 34 53 34 56 C29.38 56 24.76 56 20 56 C18.02 50.555 18.02 50.555 16 45 C9.73 45 3.46 45 -3 45 C-4.32 48.63 -5.64 52.26 -7 56 C-11.62 56 -16.24 56 -21 56 C-18.89057208 49.56524924 -16.63996247 43.20122566 -14.27734375 36.85546875 C-13.93119522 35.92326004 -13.58504669 34.99105133 -13.22840881 34.03059387 C-12.50225003 32.07650422 -11.77530578 30.12270629 -11.04760742 28.16918945 C-9.93454982 25.17957597 -8.82555111 22.18847736 -7.71679688 19.19726562 C-7.00805728 17.29157561 -6.29908123 15.38597352 -5.58984375 13.48046875 C-5.25959702 12.58877487 -4.92935028 11.69708099 -4.58909607 10.77836609 C-4.12334923 9.53105461 -4.12334923 9.53105461 -3.64819336 8.25854492 C-3.37744492 7.53068283 -3.10669647 6.80282074 -2.82774353 6.05290222 C-1.99496902 3.98752256 -0.99592234 1.99184468 0 0 Z M6 15 C4.02 21.27 2.04 27.54 0 34 C4.29 34 8.58 34 13 34 C11.11409966 27.62386075 9.14364744 21.29411375 7 15 C6.67 15 6.34 15 6 15 Z " fill="#62656B" transform="translate(178,42)"/>
<path d="M0 0 C6.36029152 2.91967668 9.61385822 7.06756019 12.73828125 13.31640625 C13.23328125 18.76140625 13.23328125 18.76140625 13.73828125 24.31640625 C4.16828125 24.31640625 -5.40171875 24.31640625 -15.26171875 24.31640625 C-13.25020612 31.09130517 -13.25020612 31.09130517 -10.26171875 32.31640625 C-6.88814541 32.81710946 -6.88814541 32.81710946 -3.26171875 32.31640625 C-2.51921875 31.49140625 -1.77671875 30.66640625 -1.01171875 29.81640625 C2.77994494 26.36943926 5.55903251 26.91181747 10.5078125 27.140625 C11.24386719 27.19863281 11.97992188 27.25664063 12.73828125 27.31640625 C11.79353765 33.78512125 8.27855752 37.39570955 3.17578125 41.25390625 C-2.91373693 43.13612096 -9.69612279 43.68087841 -15.7421875 41.3671875 C-21.44794724 37.97370563 -25.14855056 33.63792641 -27.26171875 27.31640625 C-27.9052976 20.63823091 -28.34395141 13.94707199 -24.26171875 8.31640625 C-17.61492727 0.79503695 -9.97646872 -3.01534029 0 0 Z M-14.26171875 12.31640625 C-14.59171875 13.63640625 -14.92171875 14.95640625 -15.26171875 16.31640625 C-9.98171875 16.31640625 -4.70171875 16.31640625 0.73828125 16.31640625 C0.31111324 11.36047025 0.31111324 11.36047025 -2.57421875 9.50390625 C-7.8462457 7.17440597 -10.36761894 8.52755238 -14.26171875 12.31640625 Z " fill="#62656B" transform="translate(237.26171875,56.68359375)"/>
<path d="M0 0 C3.95741288 2.87331091 6.9739901 6.70995205 8.75390625 11.2734375 C9.0546875 14.734375 9.0546875 14.734375 9.06640625 18.6484375 C9.08316406 19.93492188 9.09992188 21.22140625 9.1171875 22.546875 C8.65207085 27.3180716 7.32548056 30.56694846 4.0703125 34.1015625 C3.49152344 34.57078125 2.91273438 35.04 2.31640625 35.5234375 C1.74019531 36.00296875 1.16398437 36.4825 0.5703125 36.9765625 C-5.3599884 41.21066981 -11.13523936 40.92916898 -18.24609375 40.2734375 C-24.66258152 38.72891944 -27.69835407 34.932511 -31.1171875 29.4921875 C-33.90963731 24.00391243 -34.21218425 17.81188944 -32.59765625 11.8984375 C-29.93914393 5.17262856 -25.90249825 1.06101303 -19.43359375 -2.1015625 C-12.4323148 -3.47436229 -6.32296487 -3.60217392 0 0 Z M-17.24609375 8.2734375 C-20.61127513 11.70364654 -20.67861476 14.57327216 -20.68359375 19.2734375 C-20.70292969 20.4903125 -20.72226562 21.7071875 -20.7421875 22.9609375 C-20.16256058 26.83120231 -19.34848316 27.96880536 -16.24609375 30.2734375 C-12.8351446 31.43928941 -12.8351446 31.43928941 -9.24609375 31.2734375 C-5.81867746 29.18718411 -4.52128338 28.0990064 -3.24609375 24.2734375 C-2.85358316 19.39724824 -2.67237317 14.83523241 -4.37109375 10.2109375 C-8.31273297 6.1379103 -12.37789374 5.37883209 -17.24609375 8.2734375 Z " fill="#62656B" transform="translate(312.24609375,58.7265625)"/>
<path d="M0 0 C10.89 0 21.78 0 33 0 C32.1730989 4.96140661 31.25839029 8.09538448 29.25 12.5625 C28.69858171 13.81034282 28.1491397 15.05906062 27.6015625 16.30859375 C27.32860352 16.9310498 27.05564453 17.55350586 26.77441406 18.19482422 C25.6519349 20.8113472 24.63476662 23.46320023 23.625 26.125 C21.38635456 32.02156283 19.08185229 37.88980968 16.75 43.75 C16.39631348 44.64477051 16.04262695 45.53954102 15.67822266 46.46142578 C15.34612793 47.29399902 15.0140332 48.12657227 14.671875 48.984375 C14.3737793 49.73428711 14.07568359 50.48419922 13.76855469 51.25683594 C13 53 13 53 12 54 C7.66684941 54.1438629 3.33487639 54.04208618 -1 54 C2.5063658 43.92766723 6.31906126 34.01271089 10.3125 24.125 C10.86808521 22.74358877 11.42342486 21.36207874 11.97851562 19.98046875 C13.31575483 16.65231753 14.65794973 13.32622987 16 10 C9.73 10 3.46 10 -3 10 C-2 4 -2 4 0 0 Z " fill="#FDFEF9" transform="translate(91,43)"/>
<path d="M0 0 C1.28317892 3.84953676 1.06643637 6.94738135 1 11 C-1.3745209 11.63929409 -3.61233529 12.07497983 -6.0625 12.375 C-9.15616332 13.03322624 -10.12572622 13.5338503 -12 16 C-13.28605661 18.57211322 -13.21043941 20.56906966 -13.31640625 23.4453125 C-13.35830078 24.52167969 -13.40019531 25.59804687 -13.44335938 26.70703125 C-13.50233398 28.39892578 -13.50233398 28.39892578 -13.5625 30.125 C-13.60568359 31.26066406 -13.64886719 32.39632812 -13.69335938 33.56640625 C-13.79965945 36.37745261 -13.90035397 39.1887099 -14 42 C-17.96 42 -21.92 42 -26 42 C-26 28.47 -26 14.94 -26 1 C-22.37 1 -18.74 1 -15 1 C-14.67 2.32 -14.34 3.64 -14 5 C-13.236875 4.360625 -12.47375 3.72125 -11.6875 3.0625 C-7.70935607 0.00950582 -4.88502293 -0.10855607 0 0 Z " fill="#62656B" transform="translate(280,56)"/>
</svg>
